<svg width="48" height="48" viewBox="0 0 48 48" fill="none" xmlns="http://www.w3.org/2000/svg">
<path d="M33.1754 25.5447C33.2268 25.1591 33.2525 24.7608 33.2525 24.3367C33.2525 23.9255 33.2268 23.5142 33.1626 23.1287L35.7713 21.0983C36.0026 20.9184 36.0668 20.5714 35.9255 20.3144L33.4581 16.048C33.3039 15.7653 32.9827 15.6753 32.6999 15.7653L29.6286 16.9989C28.9861 16.5106 28.305 16.0994 27.5468 15.791L27.0842 12.5269C27.0328 12.2185 26.7758 12 26.4673 12H21.5327C21.2242 12 20.9801 12.2185 20.9287 12.5269L20.4661 15.791C19.7079 16.0994 19.0139 16.5235 18.3842 16.9989L15.3129 15.7653C15.0302 15.6625 14.7089 15.7653 14.5547 16.048L12.1002 20.3144C11.946 20.5843 11.9974 20.9184 12.2544 21.0983L14.8631 23.1287C14.7989 23.5142 14.7475 23.9383 14.7475 24.3367C14.7475 24.7351 14.7732 25.1591 14.8374 25.5447L12.2287 27.5751C11.9974 27.755 11.9332 28.1019 12.0745 28.359L14.5419 32.6254C14.6961 32.9081 15.0173 32.9981 15.3001 32.9081L18.3714 31.6744C19.0139 32.1628 19.695 32.574 20.4532 32.8824L20.9158 36.1465C20.9801 36.4549 21.2242 36.6734 21.5327 36.6734H26.4673C26.7758 36.6734 27.0328 36.4549 27.0713 36.1465L27.5339 32.8824C28.2921 32.574 28.9861 32.1628 29.6158 31.6744L32.6871 32.9081C32.9698 33.0109 33.2911 32.9081 33.4453 32.6254L35.9126 28.359C36.0668 28.0762 36.0026 27.755 35.7584 27.5751L33.1754 25.5447ZM24 28.9629C21.4556 28.9629 19.3737 26.8811 19.3737 24.3367C19.3737 21.7922 21.4556 19.7104 24 19.7104C26.5444 19.7104 28.6263 21.7922 28.6263 24.3367C28.6263 26.8811 26.5444 28.9629 24 28.9629Z" fill="white"/>
</svg>
