<svg width="48" height="48" viewBox="0 0 48 48" fill="none" xmlns="http://www.w3.org/2000/svg">
<path d="M31.2 24.5C33.408 24.5 35.184 22.66 35.184 20.3929C35.184 18.1257 33.408 16.2857 31.2 16.2857C28.992 16.2857 27.2 18.1257 27.2 20.3929C27.2 22.66 28.992 24.5 31.2 24.5ZM19.2 22.8571C21.856 22.8571 23.984 20.6557 23.984 17.9286C23.984 15.2014 21.856 13 19.2 13C16.544 13 14.4 15.2014 14.4 17.9286C14.4 20.6557 16.544 22.8571 19.2 22.8571ZM31.2 27.7857C28.272 27.7857 22.4 29.2971 22.4 32.3036V36H40V32.3036C40 29.2971 34.128 27.7857 31.2 27.7857ZM19.2 26.1429C15.472 26.1429 8 28.065 8 31.8929V36H19.2V32.3036C19.2 30.9071 19.728 28.4593 22.992 26.6029C21.6 26.3071 20.256 26.1429 19.2 26.1429Z" fill="url(#paint0_linear)"/>
<defs>
<linearGradient id="paint0_linear" x1="24" y1="36" x2="12.9098" y2="21.4572" gradientUnits="userSpaceOnUse">
<stop stop-color="#0066FF"/>
<stop offset="1" stop-color="#31B5FF"/>
</linearGradient>
</defs>
</svg>
